<svg width="25" height="36" viewBox="0 0 25 36" fill="none" xmlns="http://www.w3.org/2000/svg">
<path d="M20.8892 16.8482L20.5059 17.2965L21.0109 17.6012C23.0981 18.8608 24.5 21.1635 24.5 23.7693C24.5 27.7432 21.2815 30.9616 17.3077 30.9616H16.8077V31.4616V34.8078H13.9615V31.4616V30.9616H13.4615H9.61538H9.11538V31.4616V34.8078H6.26923V31.4616V30.9616H5.76923H0.5V28.1155H3.84615H4.34615V27.6155V8.38469V7.88469H3.84615H0.5V5.03854H5.76923H6.26923V4.53854V1.19238H9.11538V4.53854V5.03854H9.61538H13.4615H13.9615V4.53854V1.19238H16.8077V4.78854V5.17729L17.1844 5.27311C20.2935 6.06386 22.5769 8.88648 22.5769 12.2308C22.5769 14.0319 21.9483 15.6096 20.8892 16.8482ZM7.69231 7.88469H7.19231V8.38469V16.077V16.577H7.69231H15.3846C17.7761 16.577 19.7308 14.6224 19.7308 12.2308C19.7308 9.83932 17.7761 7.88469 15.3846 7.88469H7.69231ZM7.19231 27.6155V28.1155H7.69231H17.3077C19.6992 28.1155 21.6538 26.1608 21.6538 23.7693C21.6538 21.3778 19.6992 19.4232 17.3077 19.4232H7.69231H7.19231V19.9232V27.6155Z" fill="white" stroke="#415E74"/>
</svg>
